<?xml version="1.0" encoding="UTF-8" standalone="no"?>
<!-- Generator: Adobe Illustrator 16.0.0, SVG Export Plug-In . SVG Version: 6.00 Build 0)  -->

<svg
   xmlns:dc="http://purl.org/dc/elements/1.1/"
   xmlns:cc="http://creativecommons.org/ns#"
   xmlns:rdf="http://www.w3.org/1999/02/22-rdf-syntax-ns#"
   xmlns:svg="http://www.w3.org/2000/svg"
   xmlns="http://www.w3.org/2000/svg"
   xmlns:sodipodi="http://sodipodi.sourceforge.net/DTD/sodipodi-0.dtd"
   xmlns:inkscape="http://www.inkscape.org/namespaces/inkscape"
   version="1.1"
   id="Capa_1"
   x="0px"
   y="0px"
   width="45.682px"
   height="45.682px"
   viewBox="0 0 45.682 45.682"
   style="enable-background:new 0 0 45.682 45.682;"
   xml:space="preserve"
   inkscape:version="0.48.4 r9939"
   sodipodi:docname="person.svg"><metadata
     id="metadata47"><rdf:RDF><cc:Work
         rdf:about=""><dc:format>image/svg+xml</dc:format><dc:type
           rdf:resource="http://purl.org/dc/dcmitype/StillImage" /></cc:Work></rdf:RDF></metadata><defs
     id="defs45" /><sodipodi:namedview
     pagecolor="#ffffff"
     bordercolor="#666666"
     borderopacity="1"
     objecttolerance="10"
     gridtolerance="10"
     guidetolerance="10"
     inkscape:pageopacity="0"
     inkscape:pageshadow="2"
     inkscape:window-width="1920"
     inkscape:window-height="1056"
     id="namedview43"
     showgrid="false"
     inkscape:zoom="5.1661487"
     inkscape:cx="-0.29035169"
     inkscape:cy="22.841"
     inkscape:window-x="0"
     inkscape:window-y="24"
     inkscape:window-maximized="1"
     inkscape:current-layer="Capa_1" /><g
     id="g3"><g
       id="g5"><path
         d="M32.102,19.679c1.211-0.259,2.328-1.26,2.51-3.48c0.15-1.817-0.316-2.753-1.004-3.23c1.91-7.785-3.358-9.309-3.358-9.309    s-3.937-6.679-11.618-1.992c-0.977,0.596-2.496,1.738-3.401,2.917c-1.453,1.546-2.442,4.059-2.597,8.129    c-0.938,0.358-1.675,1.264-1.492,3.484c0.192,2.321,1.403,3.309,2.677,3.511c1.72,4.189,5.116,7.641,9.135,7.641    C26.982,27.35,30.385,23.882,32.102,19.679z M22.954,25.397c-4.647,0-8.389-6.31-8.389-11.535c0-0.716,0.023-1.38,0.067-1.996    c6.797,0.297,10.817-2.428,13.005-4.792c2.075,2.068,3.153,4.68,3.704,6.619c0,0.056,0.001,0.111,0.001,0.168    C31.343,19.087,27.602,25.397,22.954,25.397z"
         id="path7"
         style="fill:#ffc500;fill-opacity:1" /><path
         d="M20.292,33.297l0.538-2.227c0.062-0.257,0.195-0.477,0.375-0.646c-0.055-0.039-0.109-0.08-0.162-0.123l-4.806-3.979    l-2.925,0.684c-4.953,1.165-8.443,5.348-8.443,10.146v6.3c0,1.24,1.103,2.229,2.423,2.229h12.381l1.888-10.762    C20.713,34.908,20.092,34.125,20.292,33.297z"
         id="path9"
         style="fill:#ffc800;fill-opacity:1" /><path
         d="M32.42,27.006l-2.885-0.684l-4.801,3.979c-0.053,0.043-0.105,0.084-0.16,0.123c0.181,0.169,0.314,0.389,0.377,0.646    l0.537,2.227c0.201,0.827-0.42,1.611-1.269,1.623l1.888,10.762h12.381c1.32,0,2.324-0.988,2.324-2.229v-6.3    C40.814,32.354,37.373,28.171,32.42,27.006z"
         id="path11"
         style="fill:#ffc800;fill-opacity:0.95890409" /></g></g><g
     id="g13" /><g
     id="g15" /><g
     id="g17" /><g
     id="g19" /><g
     id="g21" /><g
     id="g23" /><g
     id="g25" /><g
     id="g27" /><g
     id="g29" /><g
     id="g31" /><g
     id="g33" /><g
     id="g35" /><g
     id="g37" /><g
     id="g39" /><g
     id="g41" /></svg>