<?xml version="1.0" encoding="UTF-8" standalone="no"?>
<!-- Generator: Adobe Illustrator 18.1.1, SVG Export Plug-In . SVG Version: 6.00 Build 0)  -->

<svg
   xmlns:dc="http://purl.org/dc/elements/1.1/"
   xmlns:cc="http://creativecommons.org/ns#"
   xmlns:rdf="http://www.w3.org/1999/02/22-rdf-syntax-ns#"
   xmlns:svg="http://www.w3.org/2000/svg"
   xmlns="http://www.w3.org/2000/svg"
   xmlns:sodipodi="http://sodipodi.sourceforge.net/DTD/sodipodi-0.dtd"
   xmlns:inkscape="http://www.inkscape.org/namespaces/inkscape"
   version="1.1"
   id="Capa_1"
   x="0px"
   y="0px"
   viewBox="0 0 15.663 15.663"
   style="enable-background:new 0 0 15.663 15.663;"
   xml:space="preserve"
   inkscape:version="0.48.4 r9939"
   width="100%"
   height="100%"
   sodipodi:docname="poll.svg"><metadata
     id="metadata49"><rdf:RDF><cc:Work
         rdf:about=""><dc:format>image/svg+xml</dc:format><dc:type
           rdf:resource="http://purl.org/dc/dcmitype/StillImage" /></cc:Work></rdf:RDF></metadata><defs
     id="defs47" /><sodipodi:namedview
     pagecolor="#ffffff"
     bordercolor="#666666"
     borderopacity="1"
     objecttolerance="10"
     gridtolerance="10"
     guidetolerance="10"
     inkscape:pageopacity="0"
     inkscape:pageshadow="2"
     inkscape:window-width="1920"
     inkscape:window-height="1056"
     id="namedview45"
     showgrid="false"
     inkscape:zoom="15.067356"
     inkscape:cx="-3.91575"
     inkscape:cy="7.8315"
     inkscape:window-x="0"
     inkscape:window-y="24"
     inkscape:window-maximized="1"
     inkscape:current-layer="Capa_1" /><g
     id="g3"><g
       id="g5"><path
         style="fill:#00c2a0;fill-opacity:1"
         d="M7.832,0.883C3.513,0.883,0,3.432,0,6.564c0,2.076,1.526,3.956,4.002,4.957    c-0.045,0.411-0.322,1.177-1.513,2.259c-0.198,0.181-0.246,0.469-0.118,0.701c0.101,0.185,0.294,0.298,0.504,0.298    c0.051,0,0.102-0.007,0.151-0.021c0.142-0.037,3.441-0.949,5.514-2.542c4.004-0.26,7.123-2.726,7.123-5.652    C15.663,3.432,12.15,0.883,7.832,0.883z M8.377,11.451l-0.124,0.006l-0.096,0.078c-1.39,1.103-3.452,1.877-4.562,2.241    c1.059-1.145,1.237-2.011,1.179-2.562L4.75,10.977l-0.226-0.084c-2.313-0.858-3.75-2.517-3.75-4.329    c0-2.706,3.166-4.907,7.058-4.907c3.891,0,7.057,2.201,7.057,4.907C14.889,9.109,12.028,11.254,8.377,11.451z"
         id="path7" /><path
         style="fill:#00da7f;fill-opacity:1"
         d="M6.045,4.237H5.178c-0.219,0-0.398,0.179-0.398,0.398v4.404c0,0.22,0.179,0.398,0.398,0.398h0.867    c0.22,0,0.398-0.179,0.398-0.398V4.636C6.443,4.416,6.264,4.237,6.045,4.237z"
         id="path9" /><path
         style="fill:#aa0038;fill-opacity:0.85844749"
         d="M10.484,5.977H9.619c-0.221,0-0.399,0.179-0.399,0.398v2.664c0,0.22,0.179,0.398,0.399,0.398h0.865    c0.221,0,0.399-0.179,0.399-0.398V6.375C10.883,6.156,10.704,5.977,10.484,5.977z"
         id="path11" /><path
         style="fill:#ffb700;fill-opacity:1"
         d="M8.278,3.154H7.412c-0.22,0-0.398,0.179-0.398,0.398v5.487c0,0.22,0.179,0.398,0.398,0.398h0.866    c0.219,0,0.397-0.179,0.397-0.398V3.552C8.675,3.333,8.497,3.154,8.278,3.154z M8.319,8.858H7.4V3.734h0.928L8.319,8.858z"
         id="path13" /></g></g><g
     id="g15" /><g
     id="g17" /><g
     id="g19" /><g
     id="g21" /><g
     id="g23" /><g
     id="g25" /><g
     id="g27" /><g
     id="g29" /><g
     id="g31" /><g
     id="g33" /><g
     id="g35" /><g
     id="g37" /><g
     id="g39" /><g
     id="g41" /><g
     id="g43" /></svg>